{
  "accessors": [
    {
      "bufferView": 2,
      "componentType": 5126,
      "count": 12542,
      "max": [
        7.723584175109863,
        13.070605278015137,
        9.822538375854492
      ],
      "min": [
        -7.850285053253174,
        -13.066825866699219,
        -0.26270371675491333
      ],
      "type": "VEC3"
    },
    {
      "bufferView": 2,
      "byteOffset": 150504,
      "componentType": 5126,
      "count": 12542,
      "max": [
        0.9999939799308777,
        0.9999966621398926,
        1.0
      ],
      "min": [
        -0.9999998807907104,
        -0.9999982714653015,
        -1.0
      ],
      "type": "VEC3"
    },
    {
      "bufferView": 1,
      "componentType": 5126,
      "count": 12542,
      "max": [
        0.9936672449111938,
        0.9942317605018616
      ],
      "min": [
        0.010426744818687439,
        0.00562781747430563
      ],
      "type": "VEC2"
    },
    {
      "bufferView": 1,
      "byteOffset": 100336,
      "componentType": 5126,
      "count": 12542,
      "max": [
        0.9936672449111938,
        0.9942317605018616
      ],
      "min": [
        0.010426744818687439,
        0.00562781747430563
      ],
      "type": "VEC2"
    },
    {
      "bufferView": 0,
      "componentType": 5125,
      "count": 54249,
      "type": "SCALAR"
    }
  ],
  "asset": {
    "extras": {
      "author": "Lvilka (https://sketchfab.com/Lvilka)",
      "license": "CC-BY-4.0 (http://creativecommons.org/licenses/by/4.0/)",
      "source": "https://sketchfab.com/3d-models/military-tent-d0d6d9a9f5ab4939932dd27bbaa5ca7d",
      "title": "Military Tent / Військовий Намет"
    },
    "generator": "Sketchfab-16.51.0",
    "version": "2.0"
  },
  "bufferViews": [
    {
      "buffer": 0,
      "byteLength": 216996,
      "name": "floatBufferViews",
      "target": 34963
    },
    {
      "buffer": 0,
      "byteLength": 200672,
      "byteOffset": 216996,
      "byteStride": 8,
      "name": "floatBufferViews",
      "target": 34962
    },
    {
      "buffer": 0,
      "byteLength": 301008,
      "byteOffset": 417668,
      "byteStride": 12,
      "name": "floatBufferViews",
      "target": 34962
    }
  ],
  "buffers": [
    {
      "byteLength": 718676,
      "uri": "scene.bin"
    }
  ],
  "images": [
    {
      "uri": "textures/M_Tent_baseColor.png"
    },
    {
      "uri": "textures/M_Tent_metallicRoughness.png"
    }
  ],
  "materials": [
    {
      "doubleSided": true,
      "name": "M_Tent",
      "pbrMetallicRoughness": {
        "baseColorTexture": {
          "index": 0
        },
        "metallicFactor": 0.0,
        "metallicRoughnessTexture": {
          "index": 1
        }
      }
    }
  ],
  "meshes": [
    {
      "name": "Tent_M_Tent_0",
      "primitives": [
        {
          "attributes": {
            "NORMAL": 1,
            "POSITION": 0,
            "TEXCOORD_0": 2,
            "TEXCOORD_1": 3
          },
          "indices": 4,
          "material": 0,
          "mode": 4
        }
      ]
    }
  ],
  "nodes": [
    {
      "children": [
        1
      ],
      "matrix": [
        1.0,
        0.0,
        0.0,
        0.0,
        0.0,
        2.220446049250313e-16,
        -1.0,
        0.0,
        0.0,
        1.0,
        2.220446049250313e-16,
        0.0,
        0.0,
        0.0,
        0.0,
        1.0
      ],
      "name": "Sketchfab_model"
    },
    {
      "children": [
        2
      ],
      "matrix": [
        0.009999999776482582,
        0.0,
        0.0,
        0.0,
        0.0,
        0.0,
        0.009999999776482582,
        0.0,
        0.0,
        -0.009999999776482582,
        0.0,
        0.0,
        0.0,
        0.0,
        0.0,
        1.0
      ],
      "name": "Tent.fbx"
    },
    {
      "children": [
        3
      ],
      "name": "RootNode"
    },
    {
      "children": [
        4
      ],
      "matrix": [
        100.0,
        0.0,
        0.0,
        0.0,
        0.0,
        -1.629206793918314e-05,
        -99.99999999999868,
        0.0,
        0.0,
        99.99999999999868,
        -1.629206793918314e-05,
        0.0,
        0.0,
        0.0,
        0.0,
        1.0
      ],
      "name": "Tent"
    },
    {
      "mesh": 0,
      "name": "Tent_M_Tent_0"
    }
  ],
  "samplers": [
    {
      "magFilter": 9729,
      "minFilter": 9987,
      "wrapS": 10497,
      "wrapT": 10497
    }
  ],
  "scene": 0,
  "scenes": [
    {
      "name": "Sketchfab_Scene",
      "nodes": [
        0
      ]
    }
  ],
  "textures": [
    {
      "sampler": 0,
      "source": 0
    },
    {
      "sampler": 0,
      "source": 1
    }
  ]
}
