{
  "accessors": [
    {
      "bufferView": 2,
      "componentType": 5126,
      "count": 968,
      "max": [
        0.16093750298023224,
        0.16515906155109406,
        1.5761901140213013
      ],
      "min": [
        -0.16093750298023224,
        -0.2921563386917114,
        0.22516301274299622
      ],
      "type": "VEC3"
    },
    {
      "bufferView": 2,
      "byteOffset": 11616,
      "componentType": 5126,
      "count": 968,
      "max": [
        1.0,
        1.0,
        1.0
      ],
      "min": [
        -1.0,
        -1.0,
        -1.0
      ],
      "type": "VEC3"
    },
    {
      "bufferView": 3,
      "componentType": 5126,
      "count": 968,
      "max": [
        1.0,
        1.0,
        1.0,
        1.0
      ],
      "min": [
        -1.0,
        -1.0,
        -1.0,
        -1.0
      ],
      "type": "VEC4"
    },
    {
      "bufferView": 1,
      "componentType": 5126,
      "count": 968,
      "max": [
        0.9934768676757813,
        0.9984480738639832
      ],
      "min": [
        0.00548204779624939,
        0.005776450037956238
      ],
      "type": "VEC2"
    },
    {
      "bufferView": 1,
      "byteOffset": 7744,
      "componentType": 5126,
      "count": 968,
      "max": [
        0.9934768676757813,
        0.9984480738639832
      ],
      "min": [
        0.00548204779624939,
        0.005776450037956238
      ],
      "type": "VEC2"
    },
    {
      "bufferView": 0,
      "componentType": 5125,
      "count": 1920,
      "type": "SCALAR"
    },
    {
      "bufferView": 2,
      "byteOffset": 23232,
      "componentType": 5126,
      "count": 32,
      "max": [
        0.11052841693162918,
        -0.20734481513500214,
        1.4784910678863525
      ],
      "min": [
        -0.11052841693162918,
        -0.20734481513500214,
        0.9739684462547302
      ],
      "type": "VEC3"
    },
    {
      "bufferView": 2,
      "byteOffset": 23616,
      "componentType": 5126,
      "count": 32,
      "max": [
        0.0,
        -1.0,
        3.225428812925202e-08
      ],
      "min": [
        0.0,
        -1.0,
        0.0
      ],
      "type": "VEC3"
    },
    {
      "bufferView": 1,
      "byteOffset": 15488,
      "componentType": 5126,
      "count": 32,
      "max": [
        0.26835766434669495,
        0.8927773237228394
      ],
      "min": [
        0.05655714496970177,
        0.39487677812576294
      ],
      "type": "VEC2"
    },
    {
      "bufferView": 0,
      "byteOffset": 7680,
      "componentType": 5125,
      "count": 78,
      "type": "SCALAR"
    },
    {
      "bufferView": 2,
      "byteOffset": 24000,
      "componentType": 5126,
      "count": 59,
      "max": [
        0.18191833794116974,
        0.1824001669883728,
        0.117291659116745
      ],
      "min": [
        -0.1821766346693039,
        -0.18169482052326202,
        -0.002036775927990675
      ],
      "type": "VEC3"
    },
    {
      "bufferView": 2,
      "byteOffset": 24708,
      "componentType": 5126,
      "count": 59,
      "max": [
        1.0,
        1.0,
        1.0
      ],
      "min": [
        -1.0,
        -1.0,
        0.0
      ],
      "type": "VEC3"
    },
    {
      "bufferView": 3,
      "byteOffset": 15488,
      "componentType": 5126,
      "count": 59,
      "max": [
        0.7790729403495789,
        1.0,
        0.6024977564811707,
        1.0
      ],
      "min": [
        -0.7722349762916565,
        -0.7987286448478699,
        -1.0,
        1.0
      ],
      "type": "VEC4"
    },
    {
      "bufferView": 1,
      "byteOffset": 15744,
      "componentType": 5126,
      "count": 59,
      "max": [
        1.0,
        1.0
      ],
      "min": [
        0.0,
        0.0
      ],
      "type": "VEC2"
    },
    {
      "bufferView": 0,
      "byteOffset": 7992,
      "componentType": 5125,
      "count": 132,
      "type": "SCALAR"
    },
    {
      "bufferView": 2,
      "byteOffset": 25416,
      "componentType": 5126,
      "count": 64,
      "max": [
        0.10091692954301834,
        0.10657520592212677,
        0.2382214069366455
      ],
      "min": [
        -0.1011752262711525,
        -0.09551694989204407,
        0.11654146015644073
      ],
      "type": "VEC3"
    },
    {
      "bufferView": 2,
      "byteOffset": 26184,
      "componentType": 5126,
      "count": 64,
      "max": [
        1.0,
        1.0,
        8.69484429131262e-05
      ],
      "min": [
        -1.0,
        -1.0,
        -0.9082198143005371
      ],
      "type": "VEC3"
    },
    {
      "bufferView": 3,
      "byteOffset": 16432,
      "componentType": 5126,
      "count": 64,
      "max": [
        1.0,
        6.131530972197652e-05,
        1.0,
        1.0
      ],
      "min": [
        -1.0,
        -1.0,
        -0.545784056186676,
        1.0
      ],
      "type": "VEC4"
    },
    {
      "bufferView": 1,
      "byteOffset": 16216,
      "componentType": 5126,
      "count": 64,
      "max": [
        0.9980303049087524,
        0.9956392049789429
      ],
      "min": [
        0.5919573903083801,
        0.780826985836029
      ],
      "type": "VEC2"
    },
    {
      "bufferView": 1,
      "byteOffset": 16728,
      "componentType": 5126,
      "count": 64,
      "max": [
        0.9980303049087524,
        0.9956392049789429
      ],
      "min": [
        0.5919573903083801,
        0.780826985836029
      ],
      "type": "VEC2"
    },
    {
      "bufferView": 0,
      "byteOffset": 8520,
      "componentType": 5125,
      "count": 96,
      "type": "SCALAR"
    }
  ],
  "asset": {
    "extras": {
      "author": "dsimplex62 (https://sketchfab.com/dsimplex62)",
      "license": "CC-BY-4.0 (http://creativecommons.org/licenses/by/4.0/)",
      "source": "https://sketchfab.com/3d-models/radar-mesta-210d-85f9b77fdcef49e38c9b2d3eb6799924",
      "title": "Radar Mesta 210d"
    },
    "generator": "Sketchfab-13.99.0",
    "version": "2.0"
  },
  "bufferViews": [
    {
      "buffer": 0,
      "byteLength": 8904,
      "name": "floatBufferViews",
      "target": 34963
    },
    {
      "buffer": 0,
      "byteLength": 17240,
      "byteOffset": 8904,
      "byteStride": 8,
      "name": "floatBufferViews",
      "target": 34962
    },
    {
      "buffer": 0,
      "byteLength": 26952,
      "byteOffset": 26144,
      "byteStride": 12,
      "name": "floatBufferViews",
      "target": 34962
    },
    {
      "buffer": 0,
      "byteLength": 17456,
      "byteOffset": 53096,
      "byteStride": 16,
      "name": "floatBufferViews",
      "target": 34962
    }
  ],
  "buffers": [
    {
      "byteLength": 70552,
      "uri": "scene.bin"
    }
  ],
  "extensionsUsed": [
    "KHR_materials_transmission"
  ],
  "images": [
    {
      "uri": "textures/metalgray01_baseColor.png"
    },
    {
      "uri": "textures/metalgray01_metallicRoughness.png"
    },
    {
      "uri": "textures/metalgray01_normal.png"
    },
    {
      "uri": "textures/bloc_beton_baseColor.png"
    },
    {
      "uri": "textures/bloc_beton_metallicRoughness.png"
    },
    {
      "uri": "textures/bloc_beton_normal.png"
    }
  ],
  "materials": [
    {
      "doubleSided": true,
      "name": "metalgray01",
      "normalTexture": {
        "index": 2
      },
      "occlusionTexture": {
        "index": 1
      },
      "pbrMetallicRoughness": {
        "baseColorTexture": {
          "index": 0
        },
        "metallicFactor": 0.46719082046604754,
        "metallicRoughnessTexture": {
          "index": 1
        }
      }
    },
    {
      "alphaMode": "BLEND",
      "doubleSided": true,
      "extensions": {
        "KHR_materials_transmission": {
          "transmissionFactor": 0.9290355946282921
        }
      },
      "name": "glass",
      "pbrMetallicRoughness": {
        "baseColorFactor": [
          0.027129385971662482,
          0.027129385971662482,
          0.027129385971662482,
          0.25
        ],
        "metallicFactor": 0.44203358776164503,
        "roughnessFactor": 0.0395178644912048
      }
    },
    {
      "doubleSided": true,
      "name": "bloc_beton",
      "normalTexture": {
        "index": 5
      },
      "pbrMetallicRoughness": {
        "baseColorTexture": {
          "index": 3
        },
        "metallicRoughnessTexture": {
          "index": 4
        }
      }
    }
  ],
  "meshes": [
    {
      "name": "Mesta210D_cabine_LOD1_metalgray01_0",
      "primitives": [
        {
          "attributes": {
            "NORMAL": 1,
            "POSITION": 0,
            "TANGENT": 2,
            "TEXCOORD_0": 3,
            "TEXCOORD_1": 4
          },
          "indices": 5,
          "material": 0,
          "mode": 4
        }
      ]
    },
    {
      "name": "vitre_LOD1_glass_0",
      "primitives": [
        {
          "attributes": {
            "NORMAL": 7,
            "POSITION": 6,
            "TEXCOORD_0": 8
          },
          "indices": 9,
          "material": 1,
          "mode": 4
        }
      ]
    },
    {
      "name": "Mesta210D_plotbeton_LOD1_bloc_beton_0",
      "primitives": [
        {
          "attributes": {
            "NORMAL": 11,
            "POSITION": 10,
            "TANGENT": 12,
            "TEXCOORD_0": 13
          },
          "indices": 14,
          "material": 2,
          "mode": 4
        }
      ]
    },
    {
      "name": "Mesta210D_pied_LOD1_metalgray01_0",
      "primitives": [
        {
          "attributes": {
            "NORMAL": 16,
            "POSITION": 15,
            "TANGENT": 17,
            "TEXCOORD_0": 18,
            "TEXCOORD_1": 19
          },
          "indices": 20,
          "material": 0,
          "mode": 4
        }
      ]
    }
  ],
  "nodes": [
    {
      "children": [
        1
      ],
      "matrix": [
        1.0,
        0.0,
        0.0,
        0.0,
        0.0,
        2.220446049250313e-16,
        -1.0,
        0.0,
        0.0,
        1.0,
        2.220446049250313e-16,
        0.0,
        0.0,
        0.0,
        0.0,
        1.0
      ],
      "name": "Sketchfab_model"
    },
    {
      "children": [
        2
      ],
      "matrix": [
        1.0,
        0.0,
        0.0,
        0.0,
        0.0,
        0.0,
        1.0,
        0.0,
        0.0,
        -1.0,
        0.0,
        0.0,
        0.0,
        0.0,
        0.0,
        1.0
      ],
      "name": "radar_MESTA210d_LOD1.fbx"
    },
    {
      "children": [
        3,
        7,
        9
      ],
      "name": "RootNode"
    },
    {
      "children": [
        4,
        5
      ],
      "matrix": [
        1.0,
        0.0,
        0.0,
        0.0,
        0.0,
        -1.6292067939183141e-07,
        -0.9999999999999868,
        0.0,
        0.0,
        0.9999999999999868,
        -1.6292067939183141e-07,
        0.0,
        0.0,
        0.0,
        0.0,
        1.0
      ],
      "name": "Mesta210D_cabine_LOD1"
    },
    {
      "mesh": 0,
      "name": "Mesta210D_cabine_LOD1_metalgray01_0"
    },
    {
      "children": [
        6
      ],
      "matrix": [
        1.0,
        0.0,
        0.0,
        0.0,
        0.0,
        1.0,
        -2.646977960169688e-23,
        0.0,
        0.0,
        2.646977960169688e-23,
        1.0,
        0.0,
        0.0,
        0.0,
        0.0,
        1.0
      ],
      "name": "vitre_LOD1"
    },
    {
      "mesh": 1,
      "name": "vitre_LOD1_glass_0"
    },
    {
      "children": [
        8
      ],
      "matrix": [
        1.0,
        0.0,
        0.0,
        0.0,
        0.0,
        -1.6292067939183141e-07,
        -0.9999999999999868,
        0.0,
        0.0,
        0.9999999999999868,
        -1.6292067939183141e-07,
        0.0,
        0.0,
        0.0,
        0.0,
        1.0
      ],
      "name": "Mesta210D_plotbeton_LOD1"
    },
    {
      "mesh": 2,
      "name": "Mesta210D_plotbeton_LOD1_bloc_beton_0"
    },
    {
      "children": [
        10
      ],
      "matrix": [
        1.0,
        0.0,
        0.0,
        0.0,
        0.0,
        -1.6292067939183141e-07,
        -0.9999999999999868,
        0.0,
        0.0,
        0.9999999999999868,
        -1.6292067939183141e-07,
        0.0,
        0.0,
        0.0,
        0.0,
        1.0
      ],
      "name": "Mesta210D_pied_LOD1"
    },
    {
      "mesh": 3,
      "name": "Mesta210D_pied_LOD1_metalgray01_0"
    }
  ],
  "samplers": [
    {
      "magFilter": 9729,
      "minFilter": 9987,
      "wrapS": 10497,
      "wrapT": 10497
    }
  ],
  "scene": 0,
  "scenes": [
    {
      "name": "Sketchfab_Scene",
      "nodes": [
        0
      ]
    }
  ],
  "textures": [
    {
      "sampler": 0,
      "source": 0
    },
    {
      "sampler": 0,
      "source": 1
    },
    {
      "sampler": 0,
      "source": 2
    },
    {
      "sampler": 0,
      "source": 3
    },
    {
      "sampler": 0,
      "source": 4
    },
    {
      "sampler": 0,
      "source": 5
    }
  ]
}
