{
  "accessors": [
    {
      "bufferView": 2,
      "componentType": 5126,
      "count": 120,
      "max": [
        1.1340385675430298,
        2.7917983531951904,
        4.260315418243408
      ],
      "min": [
        -1.1574745178222656,
        0.7568439841270447,
        2.463355541229248
      ],
      "type": "VEC3"
    },
    {
      "bufferView": 2,
      "byteOffset": 1440,
      "componentType": 5126,
      "count": 120,
      "max": [
        0.9980695843696594,
        0.38516026735305786,
        1.0
      ],
      "min": [
        -0.9980695843696594,
        -0.508209764957428,
        -1.0
      ],
      "type": "VEC3"
    },
    {
      "bufferView": 1,
      "componentType": 5126,
      "count": 120,
      "max": [
        1.9887890815734863,
        0.9954695105552673
      ],
      "min": [
        0.22854900360107422,
        0.008504699915647507
      ],
      "type": "VEC2"
    },
    {
      "bufferView": 0,
      "componentType": 5125,
      "count": 336,
      "type": "SCALAR"
    },
    {
      "bufferView": 2,
      "byteOffset": 2880,
      "componentType": 5126,
      "count": 6122,
      "max": [
        1.3433536291122437,
        1.0765012502670288,
        3.3976833820343018
      ],
      "min": [
        -1.3599525690078735,
        0.0028947629034519196,
        -2.3522896766662598
      ],
      "type": "VEC3"
    },
    {
      "bufferView": 2,
      "byteOffset": 76344,
      "componentType": 5126,
      "count": 6122,
      "max": [
        1.0,
        1.0,
        1.0
      ],
      "min": [
        -1.0,
        -0.9997300505638123,
        -1.0
      ],
      "type": "VEC3"
    },
    {
      "bufferView": 1,
      "byteOffset": 960,
      "componentType": 5126,
      "count": 6122,
      "max": [
        4.995707988739014,
        0.9951484799385071
      ],
      "min": [
        0.0004352999967522919,
        0.0009627999970689416
      ],
      "type": "VEC2"
    },
    {
      "bufferView": 0,
      "byteOffset": 1344,
      "componentType": 5125,
      "count": 19284,
      "type": "SCALAR"
    },
    {
      "bufferView": 2,
      "byteOffset": 149808,
      "componentType": 5126,
      "count": 4404,
      "max": [
        1.3763669729232788,
        2.5831515789031982,
        1.8745559453964233
      ],
      "min": [
        -1.397627592086792,
        1.179107427597046,
        -2.6819870471954346
      ],
      "type": "VEC3"
    },
    {
      "bufferView": 2,
      "byteOffset": 202656,
      "componentType": 5126,
      "count": 4404,
      "max": [
        1.0,
        1.0,
        1.0
      ],
      "min": [
        -1.0,
        -1.0,
        -1.0
      ],
      "type": "VEC3"
    },
    {
      "bufferView": 1,
      "byteOffset": 49936,
      "componentType": 5126,
      "count": 4404,
      "max": [
        1.0028163194656372,
        6.556408882141113
      ],
      "min": [
        -10.71450424194336,
        -1.139127254486084
      ],
      "type": "VEC2"
    },
    {
      "bufferView": 0,
      "byteOffset": 78480,
      "componentType": 5125,
      "count": 10920,
      "type": "SCALAR"
    },
    {
      "bufferView": 2,
      "byteOffset": 255504,
      "componentType": 5126,
      "count": 10153,
      "max": [
        1.4537074565887451,
        3.123047113418579,
        4.270560264587402
      ],
      "min": [
        -1.4771454334259033,
        0.33814191818237305,
        -2.5857017040252686
      ],
      "type": "VEC3"
    },
    {
      "bufferView": 2,
      "byteOffset": 377340,
      "componentType": 5126,
      "count": 10153,
      "max": [
        1.0,
        1.0,
        1.0
      ],
      "min": [
        -1.0,
        -1.0,
        -1.0
      ],
      "type": "VEC3"
    },
    {
      "bufferView": 1,
      "byteOffset": 85168,
      "componentType": 5126,
      "count": 10153,
      "max": [
        2.9977810382843018,
        2.415438413619995
      ],
      "min": [
        0.0005150000215508044,
        0.0005150000215508044
      ],
      "type": "VEC2"
    },
    {
      "bufferView": 0,
      "byteOffset": 122160,
      "componentType": 5125,
      "count": 24024,
      "type": "SCALAR"
    },
    {
      "bufferView": 2,
      "byteOffset": 499176,
      "componentType": 5126,
      "count": 1202,
      "max": [
        1.3762794733047485,
        3.355670690536499,
        1.8883665800094604
      ],
      "min": [
        -1.3954970836639404,
        1.6445558071136475,
        -2.8119566440582275
      ],
      "type": "VEC3"
    },
    {
      "bufferView": 2,
      "byteOffset": 513600,
      "componentType": 5126,
      "count": 1202,
      "max": [
        1.0,
        0.9999523758888245,
        1.0
      ],
      "min": [
        -1.0,
        -1.0,
        -1.0
      ],
      "type": "VEC3"
    },
    {
      "bufferView": 1,
      "byteOffset": 166392,
      "componentType": 5126,
      "count": 1202,
      "max": [
        0.9995054006576538,
        0.9972180128097534
      ],
      "min": [
        0.0004363000043667853,
        0.0020365999080240726
      ],
      "type": "VEC2"
    },
    {
      "bufferView": 0,
      "byteOffset": 218256,
      "componentType": 5125,
      "count": 4296,
      "type": "SCALAR"
    }
  ],
  "asset": {
    "extras": {
      "author": "Brout (https://sketchfab.com/davidbroutian)",
      "license": "CC-BY-4.0 (http://creativecommons.org/licenses/by/4.0/)",
      "source": "https://sketchfab.com/3d-models/kamaz-5330-e86a62f4b8c84e03b2c6e32c51474bc7",
      "title": "Kamaz 5330"
    },
    "generator": "Sketchfab-12.66.0",
    "version": "2.0"
  },
  "bufferViews": [
    {
      "buffer": 0,
      "byteLength": 235440,
      "name": "floatBufferViews",
      "target": 34963
    },
    {
      "buffer": 0,
      "byteLength": 176008,
      "byteOffset": 235440,
      "byteStride": 8,
      "name": "floatBufferViews",
      "target": 34962
    },
    {
      "buffer": 0,
      "byteLength": 528024,
      "byteOffset": 411448,
      "byteStride": 12,
      "name": "floatBufferViews",
      "target": 34962
    }
  ],
  "buffers": [
    {
      "byteLength": 939472,
      "uri": "scene.bin"
    }
  ],
  "images": [
    {
      "uri": "textures/Glasses_baseColor.png"
    },
    {
      "uri": "textures/Wheels_baseColor.png"
    },
    {
      "uri": "textures/material_baseColor.png"
    },
    {
      "uri": "textures/hull_baseColor.png"
    },
    {
      "uri": "textures/Bed_Top_baseColor.png"
    }
  ],
  "materials": [
    {
      "doubleSided": true,
      "name": "Glasses",
      "pbrMetallicRoughness": {
        "baseColorTexture": {
          "index": 0
        },
        "metallicFactor": 0.0,
        "roughnessFactor": 0.690035
      }
    },
    {
      "doubleSided": true,
      "name": "Wheels",
      "pbrMetallicRoughness": {
        "baseColorTexture": {
          "index": 1
        },
        "metallicFactor": 0.0,
        "roughnessFactor": 0.690035
      }
    },
    {
      "doubleSided": true,
      "name": "material",
      "pbrMetallicRoughness": {
        "baseColorTexture": {
          "index": 2
        },
        "metallicFactor": 0.0,
        "roughnessFactor": 0.690035
      }
    },
    {
      "doubleSided": true,
      "name": "hull",
      "pbrMetallicRoughness": {
        "baseColorTexture": {
          "index": 3
        },
        "metallicFactor": 0.1534030997795542,
        "roughnessFactor": 0.690035
      }
    },
    {
      "doubleSided": true,
      "name": "Bed_Top",
      "pbrMetallicRoughness": {
        "baseColorTexture": {
          "index": 4
        },
        "metallicFactor": 0.0,
        "roughnessFactor": 0.690035
      }
    }
  ],
  "meshes": [
    {
      "name": "Object_0",
      "primitives": [
        {
          "attributes": {
            "NORMAL": 1,
            "POSITION": 0,
            "TEXCOORD_0": 2
          },
          "indices": 3,
          "material": 0,
          "mode": 4
        }
      ]
    },
    {
      "name": "Object_1",
      "primitives": [
        {
          "attributes": {
            "NORMAL": 5,
            "POSITION": 4,
            "TEXCOORD_0": 6
          },
          "indices": 7,
          "material": 1,
          "mode": 4
        }
      ]
    },
    {
      "name": "Object_2",
      "primitives": [
        {
          "attributes": {
            "NORMAL": 9,
            "POSITION": 8,
            "TEXCOORD_0": 10
          },
          "indices": 11,
          "material": 2,
          "mode": 4
        }
      ]
    },
    {
      "name": "Object_3",
      "primitives": [
        {
          "attributes": {
            "NORMAL": 13,
            "POSITION": 12,
            "TEXCOORD_0": 14
          },
          "indices": 15,
          "material": 3,
          "mode": 4
        }
      ]
    },
    {
      "name": "Object_4",
      "primitives": [
        {
          "attributes": {
            "NORMAL": 17,
            "POSITION": 16,
            "TEXCOORD_0": 18
          },
          "indices": 19,
          "material": 4,
          "mode": 4
        }
      ]
    }
  ],
  "nodes": [
    {
      "children": [
        1
      ],
      "matrix": [
        1.0,
        0.0,
        0.0,
        0.0,
        0.0,
        2.220446049250313e-16,
        -1.0,
        0.0,
        0.0,
        1.0,
        2.220446049250313e-16,
        0.0,
        0.0,
        0.0,
        0.0,
        1.0
      ],
      "name": "Sketchfab_model"
    },
    {
      "children": [
        2
      ],
      "name": "root"
    },
    {
      "children": [
        3
      ],
      "matrix": [
        1.0,
        0.0,
        0.0,
        0.0,
        0.0,
        2.220446049250313e-16,
        1.0,
        0.0,
        0.0,
        -1.0,
        2.220446049250313e-16,
        0.0,
        0.0,
        0.0,
        0.0,
        1.0
      ],
      "name": "GLTF_SceneRootNode"
    },
    {
      "children": [
        4,
        5,
        6,
        7,
        9
      ],
      "name": "Chassi_2"
    },
    {
      "mesh": 0,
      "name": "Object_4"
    },
    {
      "mesh": 1,
      "name": "Object_5"
    },
    {
      "mesh": 2,
      "name": "Object_6"
    },
    {
      "children": [
        8
      ],
      "name": "Body_0"
    },
    {
      "mesh": 3,
      "name": "Object_8"
    },
    {
      "children": [
        10
      ],
      "name": "Kung_1"
    },
    {
      "mesh": 4,
      "name": "Object_10"
    }
  ],
  "samplers": [
    {
      "magFilter": 9729,
      "minFilter": 9987,
      "wrapS": 10497,
      "wrapT": 10497
    }
  ],
  "scene": 0,
  "scenes": [
    {
      "name": "Sketchfab_Scene",
      "nodes": [
        0
      ]
    }
  ],
  "textures": [
    {
      "sampler": 0,
      "source": 0
    },
    {
      "sampler": 0,
      "source": 1
    },
    {
      "sampler": 0,
      "source": 2
    },
    {
      "sampler": 0,
      "source": 3
    },
    {
      "sampler": 0,
      "source": 4
    }
  ]
}
