{
  "accessors": [
    {
      "bufferView": 2,
      "componentType": 5126,
      "count": 15086,
      "max": [
        72.00787353515625,
        -62.24409484863281,
        168.031494140625
      ],
      "min": [
        -69.0157470703125,
        -120.70865631103516,
        -12.44094467163086
      ],
      "type": "VEC3"
    },
    {
      "bufferView": 2,
      "byteOffset": 181032,
      "componentType": 5126,
      "count": 15086,
      "max": [
        1.0,
        1.0,
        1.0
      ],
      "min": [
        -1.0,
        -1.0,
        -1.0
      ],
      "type": "VEC3"
    },
    {
      "bufferView": 1,
      "componentType": 5126,
      "count": 15086,
      "max": [
        0.996999979019165,
        -0.004000000189989805
      ],
      "min": [
        0.0020000000949949026,
        -0.996999979019165
      ],
      "type": "VEC2"
    },
    {
      "bufferView": 0,
      "componentType": 5125,
      "count": 35733,
      "type": "SCALAR"
    },
    {
      "bufferView": 2,
      "byteOffset": 362064,
      "componentType": 5126,
      "count": 562,
      "max": [
        67.6377944946289,
        -25.78740119934082,
        211.8897705078125
      ],
      "min": [
        -76.77165222167969,
        -61.2204704284668,
        -71.53543090820313
      ],
      "type": "VEC3"
    },
    {
      "bufferView": 2,
      "byteOffset": 368808,
      "componentType": 5126,
      "count": 562,
      "max": [
        1.0,
        1.0,
        1.0
      ],
      "min": [
        -1.0,
        -1.0,
        -1.0
      ],
      "type": "VEC3"
    },
    {
      "bufferView": 1,
      "byteOffset": 120688,
      "componentType": 5126,
      "count": 562,
      "max": [
        0.9959999918937683,
        -0.013000000268220901
      ],
      "min": [
        0.003000000026077032,
        -0.9750000238418579
      ],
      "type": "VEC2"
    },
    {
      "bufferView": 0,
      "byteOffset": 142932,
      "componentType": 5125,
      "count": 840,
      "type": "SCALAR"
    },
    {
      "bufferView": 2,
      "byteOffset": 375552,
      "componentType": 5126,
      "count": 18688,
      "max": [
        67.91338348388672,
        -20.629920959472656,
        229.96063232421875
      ],
      "min": [
        -77.08661651611328,
        -76.69291687011719,
        -86.69291687011719
      ],
      "type": "VEC3"
    },
    {
      "bufferView": 2,
      "byteOffset": 599808,
      "componentType": 5126,
      "count": 18688,
      "max": [
        1.0,
        1.0,
        1.0
      ],
      "min": [
        -1.0,
        -1.0,
        -1.0
      ],
      "type": "VEC3"
    },
    {
      "bufferView": 1,
      "byteOffset": 125184,
      "componentType": 5126,
      "count": 18688,
      "max": [
        0.9990000128746033,
        -0.0010000000474974513
      ],
      "min": [
        0.0010000000474974513,
        -0.9980000257492065
      ],
      "type": "VEC2"
    },
    {
      "bufferView": 0,
      "byteOffset": 146292,
      "componentType": 5125,
      "count": 51954,
      "type": "SCALAR"
    },
    {
      "bufferView": 2,
      "byteOffset": 824064,
      "componentType": 5126,
      "count": 1840,
      "max": [
        2.9133858680725098,
        -75.11811065673828,
        8.661417007446289
      ],
      "min": [
        -12.283464431762695,
        -95.19685363769531,
        -229.96063232421875
      ],
      "type": "VEC3"
    },
    {
      "bufferView": 2,
      "byteOffset": 846144,
      "componentType": 5126,
      "count": 1840,
      "max": [
        0.9999761581420898,
        1.0,
        1.0
      ],
      "min": [
        -1.0,
        -1.0,
        -1.0
      ],
      "type": "VEC3"
    },
    {
      "bufferView": 1,
      "byteOffset": 274688,
      "componentType": 5126,
      "count": 1840,
      "max": [
        0.996999979019165,
        -0.003000000026077032
      ],
      "min": [
        0.004000000189989805,
        -0.9950000047683716
      ],
      "type": "VEC2"
    },
    {
      "bufferView": 0,
      "byteOffset": 354108,
      "componentType": 5125,
      "count": 6240,
      "type": "SCALAR"
    },
    {
      "bufferView": 2,
      "byteOffset": 868224,
      "componentType": 5126,
      "count": 4862,
      "max": [
        46.496063232421875,
        -60.393699645996094,
        142.36219787597656
      ],
      "min": [
        -65.6692886352539,
        -103.03148651123047,
        -17.637794494628906
      ],
      "type": "VEC3"
    },
    {
      "bufferView": 2,
      "byteOffset": 926568,
      "componentType": 5126,
      "count": 4862,
      "max": [
        1.0,
        1.0,
        1.0
      ],
      "min": [
        -1.0,
        -1.0,
        -1.0
      ],
      "type": "VEC3"
    },
    {
      "bufferView": 1,
      "byteOffset": 289408,
      "componentType": 5126,
      "count": 4862,
      "max": [
        0.9980000257492065,
        -0.004000000189989805
      ],
      "min": [
        0.0020000000949949026,
        -0.9959999918937683
      ],
      "type": "VEC2"
    },
    {
      "bufferView": 0,
      "byteOffset": 379068,
      "componentType": 5125,
      "count": 15618,
      "type": "SCALAR"
    },
    {
      "bufferView": 2,
      "byteOffset": 984912,
      "componentType": 5126,
      "count": 2036,
      "max": [
        77.08661651611328,
        -57.598426818847656,
        213.2283477783203
      ],
      "min": [
        -75.74803161621094,
        -101.5748062133789,
        58.11023712158203
      ],
      "type": "VEC3"
    },
    {
      "bufferView": 2,
      "byteOffset": 1009344,
      "componentType": 5126,
      "count": 2036,
      "max": [
        1.0,
        1.0,
        1.0
      ],
      "min": [
        -1.0,
        -1.0,
        -1.0
      ],
      "type": "VEC3"
    },
    {
      "bufferView": 1,
      "byteOffset": 328304,
      "componentType": 5126,
      "count": 2036,
      "max": [
        0.9980000257492065,
        -0.003000000026077032
      ],
      "min": [
        0.0020000000949949026,
        -0.9980000257492065
      ],
      "type": "VEC2"
    },
    {
      "bufferView": 0,
      "byteOffset": 441540,
      "componentType": 5125,
      "count": 6672,
      "type": "SCALAR"
    },
    {
      "bufferView": 2,
      "byteOffset": 1033776,
      "componentType": 5126,
      "count": 264,
      "max": [
        65.43306732177734,
        -51.062992095947266,
        226.61416625976563
      ],
      "min": [
        -74.56692504882813,
        -119.37007904052734,
        -62.28346252441406
      ],
      "type": "VEC3"
    },
    {
      "bufferView": 2,
      "byteOffset": 1036944,
      "componentType": 5126,
      "count": 264,
      "max": [
        0.954297661781311,
        0.923470139503479,
        1.0
      ],
      "min": [
        -0.980980396270752,
        -0.931242048740387,
        -1.0
      ],
      "type": "VEC3"
    },
    {
      "bufferView": 1,
      "byteOffset": 344592,
      "componentType": 5126,
      "count": 264,
      "max": [
        0.9819999933242798,
        -0.3269999921321869
      ],
      "min": [
        0.14900000393390656,
        -0.9940000176429749
      ],
      "type": "VEC2"
    },
    {
      "bufferView": 0,
      "byteOffset": 468228,
      "componentType": 5125,
      "count": 846,
      "type": "SCALAR"
    },
    {
      "bufferView": 2,
      "byteOffset": 1040112,
      "componentType": 5126,
      "count": 117,
      "max": [
        38.46456527709961,
        -96.88976287841797,
        112.36221313476563
      ],
      "min": [
        -55.70866012573242,
        -167.44094848632813,
        47.55905532836914
      ],
      "type": "VEC3"
    },
    {
      "bufferView": 2,
      "byteOffset": 1041516,
      "componentType": 5126,
      "count": 117,
      "max": [
        1.0,
        -0.0,
        1.0
      ],
      "min": [
        -0.7071096897125244,
        -1.0,
        -1.0
      ],
      "type": "VEC3"
    },
    {
      "bufferView": 1,
      "byteOffset": 346704,
      "componentType": 5126,
      "count": 117,
      "max": [
        0.9950000047683716,
        -0.00800000037997961
      ],
      "min": [
        0.6779999732971191,
        -0.01600000075995922
      ],
      "type": "VEC2"
    },
    {
      "bufferView": 0,
      "byteOffset": 471612,
      "componentType": 5125,
      "count": 450,
      "type": "SCALAR"
    },
    {
      "bufferView": 2,
      "byteOffset": 1042920,
      "componentType": 5126,
      "count": 1849,
      "max": [
        65.6692886352539,
        -0.11811023950576782,
        222.2440948486328
      ],
      "min": [
        -74.84252166748047,
        -52.7952766418457,
        -80.5905532836914
      ],
      "type": "VEC3"
    },
    {
      "bufferView": 2,
      "byteOffset": 1065108,
      "componentType": 5126,
      "count": 1849,
      "max": [
        1.0,
        1.0,
        0.999944806098938
      ],
      "min": [
        -1.0,
        -1.0,
        -0.9999481439590454
      ],
      "type": "VEC3"
    },
    {
      "bufferView": 1,
      "byteOffset": 347640,
      "componentType": 5126,
      "count": 1849,
      "max": [
        15.402999877929688,
        -0.004000000189989805
      ],
      "min": [
        0.0010000000474974513,
        -1.0
      ],
      "type": "VEC2"
    },
    {
      "bufferView": 0,
      "byteOffset": 473412,
      "componentType": 5125,
      "count": 5904,
      "type": "SCALAR"
    },
    {
      "bufferView": 2,
      "byteOffset": 1087296,
      "componentType": 5126,
      "count": 9757,
      "max": [
        66.6535415649414,
        -2.4015748500823975,
        221.8503875732422
      ],
      "min": [
        -72.99212646484375,
        -51.53543472290039,
        -78.14960479736328
      ],
      "type": "VEC3"
    },
    {
      "bufferView": 2,
      "byteOffset": 1204380,
      "componentType": 5126,
      "count": 9757,
      "max": [
        1.0,
        1.0,
        1.0
      ],
      "min": [
        -1.0,
        -1.0,
        -1.0
      ],
      "type": "VEC3"
    },
    {
      "bufferView": 1,
      "byteOffset": 362432,
      "componentType": 5126,
      "count": 9757,
      "max": [
        0.9959999918937683,
        -0.004999999888241291
      ],
      "min": [
        0.004999999888241291,
        -0.9959999918937683
      ],
      "type": "VEC2"
    },
    {
      "bufferView": 0,
      "byteOffset": 497028,
      "componentType": 5125,
      "count": 27810,
      "type": "SCALAR"
    },
    {
      "bufferView": 2,
      "byteOffset": 1321464,
      "componentType": 5126,
      "count": 4619,
      "max": [
        63.85826873779297,
        -2.4015748500823975,
        173.70079040527344
      ],
      "min": [
        -75.78739929199219,
        -49.960628509521484,
        -78.14960479736328
      ],
      "type": "VEC3"
    },
    {
      "bufferView": 2,
      "byteOffset": 1376892,
      "componentType": 5126,
      "count": 4619,
      "max": [
        1.0,
        1.0,
        1.0
      ],
      "min": [
        -1.0,
        -1.0,
        -1.0
      ],
      "type": "VEC3"
    },
    {
      "bufferView": 1,
      "byteOffset": 440488,
      "componentType": 5126,
      "count": 4619,
      "max": [
        0.9959999918937683,
        -0.004999999888241291
      ],
      "min": [
        0.004999999888241291,
        -0.9959999918937683
      ],
      "type": "VEC2"
    },
    {
      "bufferView": 0,
      "byteOffset": 608268,
      "componentType": 5125,
      "count": 13374,
      "type": "SCALAR"
    }
  ],
  "asset": {
    "extras": {
      "author": "Muhamad Mirza Arrafi (https://sketchfab.com/nazidefenseforceofficial)",
      "license": "CC-BY-4.0 (http://creativecommons.org/licenses/by/4.0/)",
      "source": "https://sketchfab.com/3d-models/chieftain-mk-5-main-battle-tank-1afc838ca30c4dac99c15e731d0d2ab8",
      "title": "Chieftain MK-5 Main Battle Tank"
    },
    "generator": "Sketchfab-16.59.0",
    "version": "2.0"
  },
  "bufferViews": [
    {
      "buffer": 0,
      "byteLength": 661764,
      "name": "floatBufferViews",
      "target": 34963
    },
    {
      "buffer": 0,
      "byteLength": 477440,
      "byteOffset": 661764,
      "byteStride": 8,
      "name": "floatBufferViews",
      "target": 34962
    },
    {
      "buffer": 0,
      "byteLength": 1432320,
      "byteOffset": 1139204,
      "byteStride": 12,
      "name": "floatBufferViews",
      "target": 34962
    }
  ],
  "buffers": [
    {
      "byteLength": 2571524,
      "uri": "scene.bin"
    }
  ],
  "images": [
    {
      "uri": "textures/Applique_155_baseColor.png"
    },
    {
      "uri": "textures/Cannon_128_baseColor.png"
    },
    {
      "uri": "textures/Gear_921_baseColor.png"
    },
    {
      "uri": "textures/Gear_938_baseColor.png"
    },
    {
      "uri": "textures/Hull_361_baseColor.png"
    },
    {
      "uri": "textures/SideSkirts_361_baseColor.png"
    },
    {
      "uri": "textures/Track_494_baseColor.png"
    },
    {
      "uri": "textures/Turret_995_baseColor.png"
    },
    {
      "uri": "textures/Wheels_310_baseColor.png"
    }
  ],
  "materials": [
    {
      "doubleSided": true,
      "name": "Applique_155",
      "pbrMetallicRoughness": {
        "baseColorTexture": {
          "index": 0
        },
        "metallicFactor": 0.0,
        "roughnessFactor": 0.4
      }
    },
    {
      "doubleSided": true,
      "name": "Cannon_128",
      "pbrMetallicRoughness": {
        "baseColorTexture": {
          "index": 1
        },
        "metallicFactor": 0.0,
        "roughnessFactor": 0.4
      }
    },
    {
      "doubleSided": true,
      "name": "Gear_921",
      "pbrMetallicRoughness": {
        "baseColorTexture": {
          "index": 2
        },
        "metallicFactor": 0.0,
        "roughnessFactor": 0.6
      }
    },
    {
      "doubleSided": true,
      "name": "Gear_938",
      "pbrMetallicRoughness": {
        "baseColorTexture": {
          "index": 3
        },
        "metallicFactor": 0.0,
        "roughnessFactor": 0.6
      }
    },
    {
      "doubleSided": true,
      "name": "Glass_996",
      "pbrMetallicRoughness": {
        "baseColorTexture": {
          "index": 2
        },
        "metallicFactor": 0.0,
        "roughnessFactor": 0.6
      }
    },
    {
      "doubleSided": true,
      "name": "Hull_361",
      "pbrMetallicRoughness": {
        "baseColorTexture": {
          "index": 4
        },
        "metallicFactor": 0.0,
        "roughnessFactor": 0.4
      }
    },
    {
      "doubleSided": true,
      "name": "SideSkirts_361",
      "pbrMetallicRoughness": {
        "baseColorTexture": {
          "index": 5
        },
        "metallicFactor": 0.0,
        "roughnessFactor": 0.4
      }
    },
    {
      "alphaCutoff": 0.4,
      "alphaMode": "MASK",
      "doubleSided": true,
      "name": "Track_494",
      "pbrMetallicRoughness": {
        "baseColorTexture": {
          "index": 6
        },
        "metallicFactor": 0.0,
        "roughnessFactor": 0.6
      }
    },
    {
      "doubleSided": true,
      "name": "Turret_995",
      "pbrMetallicRoughness": {
        "baseColorTexture": {
          "index": 7
        },
        "metallicFactor": 0.0,
        "roughnessFactor": 0.4
      }
    },
    {
      "doubleSided": true,
      "name": "Wheels_310",
      "pbrMetallicRoughness": {
        "baseColorTexture": {
          "index": 8
        },
        "metallicFactor": 0.0,
        "roughnessFactor": 0.4
      }
    }
  ],
  "meshes": [
    {
      "name": "Object_0",
      "primitives": [
        {
          "attributes": {
            "NORMAL": 1,
            "POSITION": 0,
            "TEXCOORD_0": 2
          },
          "indices": 3,
          "material": 8,
          "mode": 4
        }
      ]
    },
    {
      "name": "Object_1",
      "primitives": [
        {
          "attributes": {
            "NORMAL": 5,
            "POSITION": 4,
            "TEXCOORD_0": 6
          },
          "indices": 7,
          "material": 6,
          "mode": 4
        }
      ]
    },
    {
      "name": "Object_2",
      "primitives": [
        {
          "attributes": {
            "NORMAL": 9,
            "POSITION": 8,
            "TEXCOORD_0": 10
          },
          "indices": 11,
          "material": 5,
          "mode": 4
        }
      ]
    },
    {
      "name": "Object_3",
      "primitives": [
        {
          "attributes": {
            "NORMAL": 13,
            "POSITION": 12,
            "TEXCOORD_0": 14
          },
          "indices": 15,
          "material": 1,
          "mode": 4
        }
      ]
    },
    {
      "name": "Object_4",
      "primitives": [
        {
          "attributes": {
            "NORMAL": 17,
            "POSITION": 16,
            "TEXCOORD_0": 18
          },
          "indices": 19,
          "material": 0,
          "mode": 4
        }
      ]
    },
    {
      "name": "Object_5",
      "primitives": [
        {
          "attributes": {
            "NORMAL": 21,
            "POSITION": 20,
            "TEXCOORD_0": 22
          },
          "indices": 23,
          "material": 3,
          "mode": 4
        }
      ]
    },
    {
      "name": "Object_6",
      "primitives": [
        {
          "attributes": {
            "NORMAL": 25,
            "POSITION": 24,
            "TEXCOORD_0": 26
          },
          "indices": 27,
          "material": 4,
          "mode": 4
        }
      ]
    },
    {
      "name": "Object_7",
      "primitives": [
        {
          "attributes": {
            "NORMAL": 29,
            "POSITION": 28,
            "TEXCOORD_0": 30
          },
          "indices": 31,
          "material": 2,
          "mode": 4
        }
      ]
    },
    {
      "name": "Object_8",
      "primitives": [
        {
          "attributes": {
            "NORMAL": 33,
            "POSITION": 32,
            "TEXCOORD_0": 34
          },
          "indices": 35,
          "material": 7,
          "mode": 4
        }
      ]
    },
    {
      "name": "Object_9",
      "primitives": [
        {
          "attributes": {
            "NORMAL": 37,
            "POSITION": 36,
            "TEXCOORD_0": 38
          },
          "indices": 39,
          "material": 9,
          "mode": 4
        }
      ]
    },
    {
      "name": "Object_10",
      "primitives": [
        {
          "attributes": {
            "NORMAL": 41,
            "POSITION": 40,
            "TEXCOORD_0": 42
          },
          "indices": 43,
          "material": 9,
          "mode": 4
        }
      ]
    }
  ],
  "nodes": [
    {
      "children": [
        1
      ],
      "matrix": [
        1.0,
        0.0,
        0.0,
        0.0,
        0.0,
        -1.0,
        -4.440892098500626e-16,
        0.0,
        0.0,
        4.440892098500626e-16,
        -1.0,
        0.0,
        0.0,
        0.0,
        0.0,
        1.0
      ],
      "name": "Sketchfab_model"
    },
    {
      "children": [
        2,
        3,
        4,
        5,
        6,
        7,
        8,
        9,
        10,
        11,
        12
      ],
      "name": "Chieftain MK-5 Main Battle Tank.obj.cleaner.materialmerger.gles"
    },
    {
      "mesh": 0,
      "name": "Object_2"
    },
    {
      "mesh": 1,
      "name": "Object_3"
    },
    {
      "mesh": 2,
      "name": "Object_4"
    },
    {
      "mesh": 3,
      "name": "Object_5"
    },
    {
      "mesh": 4,
      "name": "Object_6"
    },
    {
      "mesh": 5,
      "name": "Object_7"
    },
    {
      "mesh": 6,
      "name": "Object_8"
    },
    {
      "mesh": 7,
      "name": "Object_9"
    },
    {
      "mesh": 8,
      "name": "Object_10"
    },
    {
      "mesh": 9,
      "name": "Object_11"
    },
    {
      "mesh": 10,
      "name": "Object_12"
    }
  ],
  "samplers": [
    {
      "magFilter": 9729,
      "minFilter": 9987,
      "wrapS": 10497,
      "wrapT": 10497
    }
  ],
  "scene": 0,
  "scenes": [
    {
      "name": "Sketchfab_Scene",
      "nodes": [
        0
      ]
    }
  ],
  "textures": [
    {
      "sampler": 0,
      "source": 0
    },
    {
      "sampler": 0,
      "source": 1
    },
    {
      "sampler": 0,
      "source": 2
    },
    {
      "sampler": 0,
      "source": 3
    },
    {
      "sampler": 0,
      "source": 4
    },
    {
      "sampler": 0,
      "source": 5
    },
    {
      "sampler": 0,
      "source": 6
    },
    {
      "sampler": 0,
      "source": 7
    },
    {
      "sampler": 0,
      "source": 8
    }
  ]
}
