{
  "accessors": [
    {
      "bufferView": 2,
      "componentType": 5126,
      "count": 21294,
      "max": [
        558.729736328125,
        400.0850830078125,
        527.3373413085938
      ],
      "min": [
        -558.729736328125,
        0.0,
        -527.3373413085938
      ],
      "type": "VEC3"
    },
    {
      "bufferView": 2,
      "byteOffset": 255528,
      "componentType": 5126,
      "count": 21294,
      "max": [
        1.0,
        1.0,
        1.0
      ],
      "min": [
        -1.0,
        -1.0,
        -1.0
      ],
      "type": "VEC3"
    },
    {
      "bufferView": 3,
      "componentType": 5126,
      "count": 21294,
      "max": [
        1.0,
        1.0,
        1.0,
        1.0
      ],
      "min": [
        -1.0,
        -1.0,
        -1.0,
        -1.0
      ],
      "type": "VEC4"
    },
    {
      "bufferView": 1,
      "componentType": 5126,
      "count": 21294,
      "max": [
        0.9983159899711609,
        0.9956660270690918
      ],
      "min": [
        0.004280999768525362,
        0.0039000511169433594
      ],
      "type": "VEC2"
    },
    {
      "bufferView": 0,
      "componentType": 5125,
      "count": 110448,
      "type": "SCALAR"
    },
    {
      "bufferView": 2,
      "byteOffset": 511056,
      "componentType": 5126,
      "count": 1020,
      "max": [
        249.4137420654297,
        203.1133575439453,
        139.54718017578125
      ],
      "min": [
        -247.36756896972656,
        130.94003295898438,
        -350.85546875
      ],
      "type": "VEC3"
    },
    {
      "bufferView": 2,
      "byteOffset": 523296,
      "componentType": 5126,
      "count": 1020,
      "max": [
        0.9882486462593079,
        0.9937034845352173,
        0.8411189913749695
      ],
      "min": [
        -0.9807673692703247,
        -0.977566659450531,
        -0.9056422710418701
      ],
      "type": "VEC3"
    },
    {
      "bufferView": 1,
      "byteOffset": 170352,
      "componentType": 5126,
      "count": 1020,
      "max": [
        0.9988126158714294,
        0.9988126158714294
      ],
      "min": [
        0.001187404035590589,
        0.014209151268005371
      ],
      "type": "VEC2"
    },
    {
      "bufferView": 0,
      "byteOffset": 441792,
      "componentType": 5125,
      "count": 5184,
      "type": "SCALAR"
    }
  ],
  "asset": {
    "extras": {
      "author": "Mehdi Shahsavan (https://sketchfab.com/ahmagh2e)",
      "license": "CC-BY-4.0 (http://creativecommons.org/licenses/by/4.0/)",
      "source": "https://sketchfab.com/3d-models/tent-military-e06d68ead08a4c44bfd5f826ecca4987",
      "title": "Tent_Military"
    },
    "generator": "Sketchfab-16.59.0",
    "version": "2.0"
  },
  "bufferViews": [
    {
      "buffer": 0,
      "byteLength": 462528,
      "name": "floatBufferViews",
      "target": 34963
    },
    {
      "buffer": 0,
      "byteLength": 178512,
      "byteOffset": 462528,
      "byteStride": 8,
      "name": "floatBufferViews",
      "target": 34962
    },
    {
      "buffer": 0,
      "byteLength": 535536,
      "byteOffset": 641040,
      "byteStride": 12,
      "name": "floatBufferViews",
      "target": 34962
    },
    {
      "buffer": 0,
      "byteLength": 340704,
      "byteOffset": 1176576,
      "byteStride": 16,
      "name": "floatBufferViews",
      "target": 34962
    }
  ],
  "buffers": [
    {
      "byteLength": 1517280,
      "uri": "scene.bin"
    }
  ],
  "extensionsUsed": [
    "KHR_materials_transmission",
    "KHR_materials_specular"
  ],
  "images": [
    {
      "uri": "textures/material_baseColor.png"
    },
    {
      "uri": "textures/material_metallicRoughness.png"
    },
    {
      "uri": "textures/material_normal.png"
    },
    {
      "uri": "textures/Glass_metallicRoughness.png"
    }
  ],
  "materials": [
    {
      "doubleSided": true,
      "name": "material",
      "normalTexture": {
        "index": 2
      },
      "pbrMetallicRoughness": {
        "baseColorTexture": {
          "index": 0
        },
        "metallicFactor": 0.0,
        "metallicRoughnessTexture": {
          "index": 1
        }
      }
    },
    {
      "alphaMode": "BLEND",
      "doubleSided": true,
      "extensions": {
        "KHR_materials_specular": {
          "specularColorFactor": [
            1.0,
            1.0,
            1.0
          ],
          "specularFactor": 1.0
        },
        "KHR_materials_transmission": {
          "transmissionFactor": 1.0
        }
      },
      "name": "Glass",
      "pbrMetallicRoughness": {
        "baseColorFactor": [
          0.603827,
          0.603827,
          0.603827,
          0.25
        ],
        "metallicFactor": 0.0,
        "metallicRoughnessTexture": {
          "index": 3
        },
        "roughnessFactor": 0.3828036940399282
      }
    }
  ],
  "meshes": [
    {
      "name": "Military_tent_01_0",
      "primitives": [
        {
          "attributes": {
            "NORMAL": 1,
            "POSITION": 0,
            "TANGENT": 2,
            "TEXCOORD_0": 3
          },
          "indices": 4,
          "material": 0,
          "mode": 4
        }
      ]
    },
    {
      "name": "Military_tent_Glass_0",
      "primitives": [
        {
          "attributes": {
            "NORMAL": 6,
            "POSITION": 5,
            "TEXCOORD_0": 7
          },
          "indices": 8,
          "material": 1,
          "mode": 4
        }
      ]
    }
  ],
  "nodes": [
    {
      "children": [
        1
      ],
      "matrix": [
        1.0,
        0.0,
        0.0,
        0.0,
        0.0,
        2.220446049250313e-16,
        -1.0,
        0.0,
        0.0,
        1.0,
        2.220446049250313e-16,
        0.0,
        0.0,
        0.0,
        0.0,
        1.0
      ],
      "name": "Sketchfab_model"
    },
    {
      "children": [
        2
      ],
      "matrix": [
        0.009999999776482582,
        0.0,
        0.0,
        0.0,
        0.0,
        0.0,
        0.009999999776482582,
        0.0,
        0.0,
        -0.009999999776482582,
        0.0,
        0.0,
        0.0,
        0.0,
        0.0,
        1.0
      ],
      "name": "029a37a1beda457e83b2c2105e5f3dee.fbx"
    },
    {
      "children": [
        3,
        5
      ],
      "name": "RootNode"
    },
    {
      "children": [
        4
      ],
      "matrix": [
        0.848272174492873,
        -0.3817080219288248,
        0.3670603546779694,
        0.0,
        0.3503172822418117,
        0.9242829577543794,
        0.15158765044530187,
        0.0,
        -0.3971298524964394,
        -2.7755575615628914e-17,
        0.9177624312730154,
        0.0,
        -1125.3438720703125,
        610.5965576171875,
        -810.2512817382813,
        1.0
      ],
      "name": "CINEMA_4D_Editor"
    },
    {
      "name": "Object_4"
    },
    {
      "children": [
        6,
        7
      ],
      "matrix": [
        1.0,
        0.0,
        0.0,
        0.0,
        0.0,
        1.0,
        0.0,
        0.0,
        0.0,
        0.0,
        1.0,
        0.0,
        -0.000213623046875,
        -10.788999557495117,
        16.1053466796875,
        1.0
      ],
      "name": "Military_tent"
    },
    {
      "mesh": 0,
      "name": "Military_tent_01_0"
    },
    {
      "mesh": 1,
      "name": "Military_tent_Glass_0"
    }
  ],
  "samplers": [
    {
      "magFilter": 9729,
      "minFilter": 9987,
      "wrapS": 10497,
      "wrapT": 10497
    }
  ],
  "scene": 0,
  "scenes": [
    {
      "name": "Sketchfab_Scene",
      "nodes": [
        0
      ]
    }
  ],
  "textures": [
    {
      "sampler": 0,
      "source": 0
    },
    {
      "sampler": 0,
      "source": 1
    },
    {
      "sampler": 0,
      "source": 2
    },
    {
      "sampler": 0,
      "source": 3
    }
  ]
}
